{"title":"Tom Petty&amp;TheHeartbreakers_ABunchOfVideosAndSomeOtherStuff","uid":7277141,"size":677694857,"categoryP":"video","categoryS":"music_videos","magnet":"?xt=urn:btih:ee49e032e5157d4cc69d5ee1dce8dc51df8d1933&amp;dn=Tom+Petty%26amp%3BTheHeartbreakers_ABunchOfVideosAndSomeOtherStuff&amp;tr=udp%3A%2F%2Ftracker.openbittorrent.com%3A80&amp;tr=udp%3A%2F%2Fopen.demonii.com%3A1337&amp;tr=udp%3A%2F%2Ftracker.coppersurfer.tk%3A6969&amp;tr=udp%3A%2F%2Fexodus.desync.com%3A6969","seeders":1,"leechers":0,"uploader":"mesahawni","files":-1,"time":1337321394,"description":"Tom Petty and the Heartbreakers in a blatant example of crass commercialism, seem to believe that great music and award winning visuals and never-before-seen comic vignettes are all it takes to dupe the public into acquiring this compilation of their classic videos. Well...maybe they're right!\n\nTom Petty &amp; the Heartbreakers - A Bunch Of Videos and Some Other Stuff (1989).mp4\n\nFormat                                   : MPEG-4\nFormat profile                           : Base Media\nCodec ID                                 : isom\nFile size                                : 646 MiB\nDuration                                 : 1h 5mn\nOverall bit rate mode                    : Variable\nOverall bit rate                         : 1 386 Kbps\nWriting application                      : Lavf52.94.0\n\nVideo\nID                                       : 1\nFormat                                   : AVC\nFormat/Info                              : Advanced Video Codec\nFormat profile                           : &lt;a class=&quot;__cf_email__&quot; href=&quot;/cdn-cgi/l/email-protection&quot; data-cfemail=&quot;0548646c6b4549362b35&quot;&gt;[email&amp;#160;protected]&lt;/a&gt;&lt;script cf-hash='f9e31' type=&quot;text/javascript&quot;&gt;\n/* &lt;![CDATA[ */!function(){try{var t=&quot;currentScript&quot;in document?document.currentScript:function(){for(var t=document.getElementsByTagName(&quot;script&quot;),e=t.length;e--;)if(t[e].getAttribute(&quot;cf-hash&quot;))return t[e]}();if(t&amp;&amp;t.previousSibling){var e,r,n,i,c=t.previousSibling,a=c.getAttribute(&quot;data-cfemail&quot;);if(a){for(e=&quot;&quot;,r=parseInt(a.substr(0,2),16),n=2;a.length-n;n+=2)i=parseInt(a.substr(n,2),16)^r,e+=String.fromCharCode(i);e=document.createTextNode(e),c.parentNode.replaceChild(e,c)}}}catch(u){}}();/* ]]&gt; */&lt;/script&gt;\nFormat settings, CABAC                   : Yes\nFormat settings, ReFrames                : 2 frames\nCodec ID                                 : avc1\nCodec ID/Info                            : Advanced Video Coding\nDuration                                 : 1h 5mn\nBit rate                                 : 1 214 Kbps\nWidth                                    : 720 pixels\nHeight                                   : 480 pixels\nDisplay aspect ratio                     : 3:2\nFrame rate mode                          : Constant\nFrame rate                               : 29.970 fps\nStandard                                 : NTSC\nColor space                              : YUV\nChroma subsampling                       : 4:2:0\nBit depth                                : 8 bits\nScan type                                : Progressive\nBits/(Pixel*Frame)                       : 0.117\nStream size                              : 566 MiB (88%)\nWriting library                          : x264 core 112 r1834 a51816a\n\nAudio\nID                                       : 2\nFormat                                   : AAC\nFormat/Info                              : Advanced Audio Codec\nFormat profile                           : LC\nCodec ID                                 : 40\nDuration                                 : 1h 5mn\nBit rate mode                            : Variable\nBit rate                                 : 165 Kbps\nChannel(s)                               : 2 channels\nChannel positions                        : Front: L R\nSampling rate                            : 48.0 KHz\nCompression mode                         : Lossy\nDelay relative to video                  : -1s 1ms\nStream size                              : 77.1 MiB (12%)\n\n","torrent":{"xt":"urn:btih:ee49e032e5157d4cc69d5ee1dce8dc51df8d1933","amp;dn":"Tom+Petty%26amp%3BTheHeartbreakers_ABunchOfVideosAndSomeOtherStuff","amp;tr":["udp%3A%2F%2Ftracker.openbittorrent.com%3A80","udp%3A%2F%2Fopen.demonii.com%3A1337","udp%3A%2F%2Ftracker.coppersurfer.tk%3A6969","udp%3A%2F%2Fexodus.desync.com%3A6969"],"infoHash":"ee49e032e5157d4cc69d5ee1dce8dc51df8d1933","infoHashBuffer":{"type":"Buffer","data":[238,73,224,50,229,21,125,76,198,157,94,225,220,232,220,81,223,141,25,51]},"announce":[],"urlList":[]}}